<svg version="1.1" id="Layer_1" xmlns="http://www.w3.org/2000/svg" xmlns:xlink="http://www.w3.org/1999/xlink" x="0px" y="0px"
	 width="100%" viewBox="0 0 984 269" enable-background="new 0 0 984 269" xml:space="preserve">
<path fill="#FEFEFE" opacity="1.000000" stroke="none" 
	d="
M237.000000,1.000000 
	C486.281311,1.000000 735.562622,1.000000 984.921997,1.000000 
	C984.921997,90.595863 984.921997,180.191818 984.921997,269.893890 
	C657.000000,269.893890 329.000031,269.893890 1.000000,269.893890 
	C1.000000,258.920197 1.000000,247.922729 1.468656,236.461365 
	C77.893951,235.997101 153.850586,235.997208 229.807220,235.995560 
	C236.992416,235.995392 236.998322,235.990311 236.998489,228.870026 
	C237.000153,152.913345 236.999786,76.956673 237.000000,1.000000 
M624.640015,141.170319 
	C625.442749,147.369537 626.797241,153.556213 626.938416,159.770447 
	C627.277771,174.708374 627.048218,189.659241 627.048218,204.778198 
	C631.101746,204.778198 634.677124,204.778198 638.680359,204.778198 
	C638.680359,202.918228 638.675537,201.289261 638.681091,199.660324 
	C638.726135,186.497482 638.498962,173.324905 638.965820,160.176987 
	C639.132935,155.471954 640.292542,150.521896 642.203064,146.218109 
	C646.040283,137.573669 656.186035,133.617844 665.964539,136.138321 
	C672.617981,137.853287 675.316467,142.815231 675.318787,153.364471 
	C675.322205,168.861969 675.319641,184.359451 675.319641,199.856949 
	C675.319641,201.473129 675.319641,203.089310 675.319641,204.788422 
	C679.466736,204.788422 683.066040,204.788422 687.089600,204.788422 
	C687.089600,201.457092 687.097351,198.336090 687.088257,195.215118 
	C687.042358,179.386063 687.235901,163.551254 686.861694,147.729904 
	C686.590515,136.262299 681.175110,128.833405 672.237976,126.195312 
	C659.392029,122.403412 647.593689,126.290070 639.475342,136.968414 
	C638.902283,137.722168 638.216492,138.390213 636.844360,139.923935 
	C633.234375,128.807343 625.319214,124.997696 614.825928,124.932480 
	C604.293945,124.867035 596.580322,129.758820 590.774719,138.494949 
	C590.433228,138.263794 590.091675,138.032654 589.750183,137.801498 
	C589.750183,133.949387 589.750183,130.097260 589.750183,126.305771 
	C585.715820,126.305771 582.328125,126.305771 579.056396,126.305771 
	C579.056396,152.691299 579.056396,178.755661 579.056396,204.686646 
	C582.941467,204.686646 586.504395,204.686646 590.259949,204.686646 
	C590.259949,190.539124 590.017151,176.711853 590.384033,162.900787 
	C590.523132,157.663971 591.217712,152.126144 593.135437,147.313843 
	C598.119019,134.807709 615.295471,131.311127 624.640015,141.170319 
M492.183716,182.499878 
	C492.183716,189.931442 492.183716,197.363022 492.183716,204.678619 
	C496.404816,204.678619 499.982788,204.678619 503.935059,204.678619 
	C503.935059,189.882477 503.594299,175.405670 504.112976,160.959747 
	C504.304077,155.637421 505.699524,149.993210 508.000763,145.193512 
	C511.885529,137.091202 522.075073,133.636993 531.317749,136.171509 
	C537.787048,137.945541 540.540344,142.953888 540.548218,153.034882 
	C540.558960,166.858612 540.550903,180.682343 540.550903,194.506073 
	C540.550903,197.939606 540.550903,201.373138 540.550903,204.786255 
	C544.765686,204.786255 548.369446,204.786255 551.905945,204.786255 
	C551.905945,184.926880 552.247681,165.284927 551.750977,145.664215 
	C551.527466,136.837784 547.381592,129.676025 538.270752,126.536377 
	C525.793579,122.236649 512.880005,126.126694 504.914429,136.611969 
	C504.243225,137.495468 503.461517,138.295059 502.039337,139.927963 
	C498.287109,128.567993 490.138336,124.874123 479.472351,124.939133 
	C469.082092,125.002464 461.487946,130.078079 455.683868,138.792664 
	C455.343658,138.396240 455.003418,137.999817 454.663208,137.603394 
	C454.663208,133.837234 454.663208,130.071075 454.663208,126.334946 
	C450.855042,126.334946 447.463348,126.334946 444.268402,126.334946 
	C444.268402,152.729568 444.268402,178.776077 444.268402,204.850311 
	C448.086060,204.850311 451.547974,204.850311 455.449066,204.850311 
	C455.449066,203.056488 455.449036,201.421722 455.449066,199.786972 
	C455.449493,187.295654 455.169678,174.795013 455.583923,162.317444 
	C455.757263,157.095978 456.622437,151.610901 458.548828,146.796143 
	C462.143219,137.812424 472.106476,133.745804 482.418793,136.064865 
	C489.251038,137.601318 492.165680,142.794830 492.180939,153.519318 
	C492.194183,162.846161 492.183716,172.173035 492.183716,182.499878 
M307.928375,193.862534 
	C290.522247,197.900772 275.596588,194.723343 265.082428,178.075424 
	C262.205353,181.652145 259.873199,184.551422 257.223969,187.844894 
	C259.933044,190.791077 262.152679,193.738113 264.886444,196.086716 
	C277.455017,206.884567 302.730286,209.382721 317.320435,201.457153 
	C327.586670,195.880432 332.083984,186.996292 332.079224,175.580338 
	C332.074554,164.377914 327.207092,155.959808 317.101532,151.055923 
	C312.659943,148.900574 307.828766,147.485565 303.082611,146.035049 
	C295.955322,143.856812 288.564331,142.422562 281.627136,139.776306 
	C275.230133,137.336075 272.607758,131.822556 272.796906,124.950974 
	C272.965851,118.815475 275.664612,114.086334 281.320648,112.042908 
	C292.817352,107.889351 304.263123,108.123787 314.695038,115.214302 
	C322.194641,120.311737 322.024628,120.563370 327.240051,112.644440 
	C327.319885,112.523201 327.295624,112.333427 327.526093,110.836876 
	C323.856171,108.341255 320.014679,104.735344 315.461792,102.825378 
	C303.392365,97.762177 290.837921,97.409782 278.425385,101.705872 
	C267.673767,105.427132 261.196075,112.970177 260.643188,124.604271 
	C260.095245,136.133682 264.779144,145.079117 275.390808,150.179886 
	C279.689148,152.246002 284.372345,153.568420 288.963257,154.954971 
	C295.314362,156.873108 301.877869,158.159302 308.104279,160.400162 
	C315.274323,162.980591 319.544037,168.128036 319.569702,176.221909 
	C319.595490,184.363495 316.434021,190.375702 307.928375,193.862534 
M773.302185,206.002060 
	C782.773132,205.904755 789.790222,201.216522 795.151794,193.313431 
	C800.422913,204.846573 808.164124,207.978149 817.967285,202.904205 
	C817.493469,200.316223 817.001038,197.626663 816.530701,195.057343 
	C807.196777,194.828354 806.255554,193.828018 806.243347,184.693878 
	C806.225952,171.699829 806.208435,158.705795 806.197876,145.711746 
	C806.192017,138.455475 803.121094,132.783401 797.010681,128.993576 
	C783.803711,120.802284 760.053101,124.992256 750.349487,137.170593 
	C749.688904,137.999634 749.199280,139.771576 749.635132,140.518387 
	C751.020386,142.891876 752.881409,144.987686 754.717529,147.399551 
	C755.808167,146.536713 756.534180,146.131226 757.038940,145.537613 
	C764.200256,137.116516 773.504578,134.871140 784.054016,135.968933 
	C790.838013,136.674896 794.544312,140.588425 794.274109,147.026993 
	C794.066162,151.981689 791.110657,154.975967 783.956543,156.806198 
	C776.413086,158.736038 768.613708,159.816116 761.242065,162.231766 
	C749.814392,165.976608 745.076416,174.038071 746.089600,186.137238 
	C746.982544,196.798843 753.963928,203.978729 765.399414,205.781494 
	C767.681702,206.141281 770.051636,205.945297 773.302185,206.002060 
M913.682861,165.829376 
	C909.034363,153.887894 904.454712,141.918594 899.654663,130.038406 
	C899.017822,128.462265 897.422791,126.452721 895.986755,126.187859 
	C892.822266,125.604225 889.475891,126.006592 885.491760,126.006592 
	C886.399170,128.570175 886.993042,130.427917 887.707214,132.238174 
	C896.988159,155.765915 906.290466,179.285187 915.567566,202.814423 
	C916.048340,204.033859 916.748718,205.347443 916.675293,206.577087 
	C915.804565,221.161072 904.241272,229.871368 890.135864,226.370911 
	C886.542480,225.479126 885.388977,226.479248 884.776733,229.854401 
	C884.198242,233.043518 882.738464,235.977997 887.691284,236.996780 
	C904.664307,240.488068 917.452393,236.040970 924.072693,219.194748 
	C935.697571,189.613586 947.198303,159.983643 958.723999,130.363617 
	C959.219971,129.089005 959.446960,127.709709 959.901733,125.992317 
	C958.134277,125.992317 956.948730,126.164047 955.829834,125.963669 
	C949.865051,124.895439 947.197571,127.492241 945.263794,133.213837 
	C940.258179,148.024277 934.443359,162.561813 928.920227,177.196442 
	C927.322205,181.430603 925.618286,185.624802 923.462646,191.110413 
	C919.923462,182.002884 916.924011,174.284195 913.682861,165.829376 
M398.302826,188.780716 
	C392.976746,194.592987 386.121918,195.850662 378.696381,195.285431 
	C370.697601,194.676559 365.523376,190.141571 364.970917,182.140793 
	C364.353027,173.192032 364.522736,164.185287 364.457001,155.202988 
	C364.386566,145.576340 364.441101,135.948776 364.441101,126.254395 
	C360.423798,126.254395 356.842316,126.254395 353.052124,126.254395 
	C353.052124,144.788513 352.802704,163.066437 353.139221,181.333588 
	C353.365997,193.644348 358.949432,201.388596 368.628326,204.493362 
	C381.302246,208.558838 393.854919,205.175385 401.041656,195.753815 
	C402.076965,194.396545 403.100861,193.030563 404.130035,191.668625 
	C404.475494,191.775665 404.820984,191.882690 405.166443,191.989731 
	C405.166443,196.184357 405.166443,200.378983 405.166443,204.778961 
	C409.180908,204.778961 412.600708,204.778961 416.231659,204.778961 
	C416.231659,178.580536 416.231659,152.499985 416.231659,126.297150 
	C412.331573,126.297150 408.613708,126.297150 404.751617,126.297150 
	C404.751617,140.243820 404.836456,153.886749 404.717682,167.527908 
	C404.653229,174.928268 403.698608,182.169220 398.302826,188.780716 
M846.382324,155.260345 
	C846.724731,153.804916 847.007263,152.332321 847.419250,150.896851 
	C850.254639,141.017380 856.184265,136.521439 866.388062,136.965698 
	C869.599915,137.105530 872.771423,138.172668 876.280945,138.879761 
	C877.137817,136.127151 878.208130,133.507233 878.673218,130.783905 
	C878.854248,129.724030 877.920959,127.635315 877.069641,127.367447 
	C868.540283,124.683563 854.786133,124.650612 848.199280,135.586151 
	C847.524902,136.705643 846.721069,137.747177 845.977356,138.824890 
	C845.578552,138.686905 845.179688,138.548920 844.780884,138.410934 
	C844.780884,134.368622 844.780884,130.326324 844.780884,126.287491 
	C840.902222,126.287491 837.642334,126.287491 834.204224,126.287491 
	C834.204224,152.580322 834.204224,178.577103 834.204224,204.700439 
	C838.138550,204.700439 841.706909,204.700439 846.185547,204.700439 
	C846.185547,188.306808 846.185547,172.214615 846.382324,155.260345 
M724.735718,203.437943 
	C728.440491,200.333267 729.047729,196.444733 727.072693,192.283936 
	C725.140381,188.213181 721.334229,187.593964 717.332581,188.070343 
	C713.385193,188.540268 710.703552,191.102753 710.500977,194.820007 
	C710.355591,197.486481 711.281799,200.919495 713.026123,202.822388 
	C715.975769,206.040344 720.160706,205.679581 724.735718,203.437943 
z"/>
<path fill="#F4F2FE" opacity="1.000000" stroke="none" 
	d="
M236.531342,1.000000 
	C236.999786,76.956673 237.000153,152.913345 236.998489,228.870026 
	C236.998322,235.990311 236.992416,235.995392 229.807220,235.995560 
	C153.850586,235.997208 77.893951,235.997101 1.468656,235.998734 
	C1.000000,157.739471 1.000000,79.478935 1.000000,1.000000 
	C79.354095,1.000000 157.708389,1.000000 236.531342,1.000000 
M161.979645,79.546188 
	C161.979630,98.706375 161.309891,117.899734 162.256516,137.013031 
	C162.744461,146.865402 160.147598,153.065506 150.815918,156.289017 
	C149.121002,156.874496 147.641922,158.084381 146.062698,159.005127 
	C137.312103,164.107147 128.561340,169.208878 119.229851,174.649323 
	C125.007980,177.981567 129.908035,181.106186 135.099915,183.630615 
	C136.792007,184.453339 139.655838,184.458847 141.285141,183.564865 
	C153.794403,176.701035 166.095276,169.458527 178.554321,162.500977 
	C180.882019,161.201111 181.791641,159.827377 181.782257,157.091644 
	C181.674240,125.602455 181.764755,94.112450 181.583191,62.623924 
	C181.572601,60.785686 180.146271,58.149677 178.589371,57.247974 
	C157.487595,45.026630 136.269852,33.004013 114.983315,21.106649 
	C113.616356,20.342638 111.073204,20.340494 109.712952,21.109079 
	C90.346626,32.051697 71.083176,43.176662 51.825394,54.310379 
	C50.755116,54.929153 49.178444,55.981003 49.146683,56.877644 
	C48.916466,63.377140 49.023048,69.888573 49.023048,76.956863 
	C68.799797,65.528999 87.859390,54.759922 106.620560,43.493858 
	C111.028275,40.847031 114.063881,41.091011 118.222984,43.667450 
	C130.074951,51.009396 141.990952,58.311111 154.323517,64.787437 
	C160.456146,68.007935 163.384735,71.761925 161.979645,79.546188 
M24.019737,117.501083 
	C24.021591,136.330688 24.092922,155.160782 23.954439,173.989365 
	C23.932291,177.000671 24.714905,178.703262 27.457493,180.243576 
	C42.075737,188.453568 56.546490,196.925964 71.079201,205.288574 
	C76.538918,208.430283 82.070808,214.035934 87.492058,213.943817 
	C93.177864,213.847183 98.772064,208.266418 104.398277,205.068314 
	C104.650505,204.924957 104.823074,204.641479 105.258919,204.187866 
	C103.973831,203.398193 102.742493,202.603683 101.476318,201.869217 
	C83.251404,191.297119 65.069214,180.649551 46.746391,170.249817 
	C43.710869,168.526886 42.705292,166.661209 42.745167,163.241760 
	C42.931686,147.246948 42.974720,131.246445 42.719715,115.253532 
	C42.660137,111.517090 43.977558,109.727234 47.077168,107.985313 
	C63.867302,98.549492 80.511147,88.853752 97.237793,79.304314 
	C102.399651,76.357346 107.670166,71.350189 112.878471,71.366096 
	C118.118660,71.382095 123.374756,76.420013 128.567825,79.356514 
	C137.475342,84.393402 146.339233,89.507431 155.861938,94.955528 
	C155.861938,88.287582 156.116287,82.489204 155.715195,76.736519 
	C155.585922,74.882362 154.169067,72.424820 152.596970,71.474464 
	C140.387436,64.093605 127.943214,57.101761 115.704132,49.768368 
	C113.203712,48.270168 111.457191,48.340385 109.011429,49.765331 
	C85.784752,63.297619 62.475609,76.688255 39.211224,90.155991 
	C34.203190,93.055130 27.369719,95.003555 24.852936,99.386032 
	C22.320164,103.796326 24.118963,110.694183 24.019737,117.501083 
M144.643417,189.124222 
	C140.256592,193.021408 136.275146,192.076645 131.452103,189.196884 
	C111.782623,177.452591 91.881416,166.094147 71.985878,154.733139 
	C69.091637,153.080444 67.895363,151.289490 67.950897,147.809677 
	C68.184074,133.198639 68.049370,118.581734 68.049370,103.247917 
	C61.717644,106.812805 55.928600,109.959785 50.296806,113.366699 
	C49.472240,113.865517 49.035084,115.599648 49.028572,116.765594 
	C48.945782,131.593597 48.906490,146.423004 49.082584,161.249374 
	C49.099766,162.696014 50.256413,164.751419 51.495483,165.469818 
	C79.206245,181.535995 106.987350,197.481369 134.834335,213.310303 
	C136.076294,214.016266 138.414871,214.024780 139.653702,213.321198 
	C161.002213,201.196350 182.278076,188.942612 203.483826,176.569672 
	C204.737534,175.838165 206.007919,173.865509 206.017776,172.461609 
	C206.175369,149.970093 206.146423,127.477119 206.080093,104.984711 
	C206.076599,103.795006 205.730667,102.015457 204.922104,101.514488 
	C199.508133,98.160042 193.925339,95.078087 187.948898,91.650543 
	C187.948898,114.962097 187.865509,137.452194 188.039978,159.940308 
	C188.065765,163.264648 186.958130,164.905518 184.152039,166.483521 
	C171.131897,173.805435 158.253342,181.379150 144.643417,189.124222 
z"/>
<path fill="#080808" opacity="1.000000" stroke="none" 
	d="
M624.411743,140.849945 
	C615.295471,131.311127 598.119019,134.807709 593.135437,147.313843 
	C591.217712,152.126144 590.523132,157.663971 590.384033,162.900787 
	C590.017151,176.711853 590.259949,190.539124 590.259949,204.686646 
	C586.504395,204.686646 582.941467,204.686646 579.056396,204.686646 
	C579.056396,178.755661 579.056396,152.691299 579.056396,126.305771 
	C582.328125,126.305771 585.715820,126.305771 589.750183,126.305771 
	C589.750183,130.097260 589.750183,133.949387 589.750183,137.801498 
	C590.091675,138.032654 590.433228,138.263794 590.774719,138.494949 
	C596.580322,129.758820 604.293945,124.867035 614.825928,124.932480 
	C625.319214,124.997696 633.234375,128.807343 636.844360,139.923935 
	C638.216492,138.390213 638.902283,137.722168 639.475342,136.968414 
	C647.593689,126.290070 659.392029,122.403412 672.237976,126.195312 
	C681.175110,128.833405 686.590515,136.262299 686.861694,147.729904 
	C687.235901,163.551254 687.042358,179.386063 687.088257,195.215118 
	C687.097351,198.336090 687.089600,201.457092 687.089600,204.788422 
	C683.066040,204.788422 679.466736,204.788422 675.319641,204.788422 
	C675.319641,203.089310 675.319641,201.473129 675.319641,199.856949 
	C675.319641,184.359451 675.322205,168.861969 675.318787,153.364471 
	C675.316467,142.815231 672.617981,137.853287 665.964539,136.138321 
	C656.186035,133.617844 646.040283,137.573669 642.203064,146.218109 
	C640.292542,150.521896 639.132935,155.471954 638.965820,160.176987 
	C638.498962,173.324905 638.726135,186.497482 638.681091,199.660324 
	C638.675537,201.289261 638.680359,202.918228 638.680359,204.778198 
	C634.677124,204.778198 631.101746,204.778198 627.048218,204.778198 
	C627.048218,189.659241 627.277771,174.708374 626.938416,159.770447 
	C626.797241,153.556213 625.442749,147.369537 624.411743,140.849945 
z"/>
<path fill="#070707" opacity="1.000000" stroke="none" 
	d="
M492.183716,181.999878 
	C492.183716,172.173035 492.194183,162.846161 492.180939,153.519318 
	C492.165680,142.794830 489.251038,137.601318 482.418793,136.064865 
	C472.106476,133.745804 462.143219,137.812424 458.548828,146.796143 
	C456.622437,151.610901 455.757263,157.095978 455.583923,162.317444 
	C455.169678,174.795013 455.449493,187.295654 455.449066,199.786972 
	C455.449036,201.421722 455.449066,203.056488 455.449066,204.850311 
	C451.547974,204.850311 448.086060,204.850311 444.268402,204.850311 
	C444.268402,178.776077 444.268402,152.729568 444.268402,126.334946 
	C447.463348,126.334946 450.855042,126.334946 454.663208,126.334946 
	C454.663208,130.071075 454.663208,133.837234 454.663208,137.603394 
	C455.003418,137.999817 455.343658,138.396240 455.683868,138.792664 
	C461.487946,130.078079 469.082092,125.002464 479.472351,124.939133 
	C490.138336,124.874123 498.287109,128.567993 502.039337,139.927963 
	C503.461517,138.295059 504.243225,137.495468 504.914429,136.611969 
	C512.880005,126.126694 525.793579,122.236649 538.270752,126.536377 
	C547.381592,129.676025 551.527466,136.837784 551.750977,145.664215 
	C552.247681,165.284927 551.905945,184.926880 551.905945,204.786255 
	C548.369446,204.786255 544.765686,204.786255 540.550903,204.786255 
	C540.550903,201.373138 540.550903,197.939606 540.550903,194.506073 
	C540.550903,180.682343 540.558960,166.858612 540.548218,153.034882 
	C540.540344,142.953888 537.787048,137.945541 531.317749,136.171509 
	C522.075073,133.636993 511.885529,137.091202 508.000763,145.193512 
	C505.699524,149.993210 504.304077,155.637421 504.112976,160.959747 
	C503.594299,175.405670 503.935059,189.882477 503.935059,204.678619 
	C499.982788,204.678619 496.404816,204.678619 492.183716,204.678619 
	C492.183716,197.363022 492.183716,189.931442 492.183716,181.999878 
z"/>
<path fill="#070707" opacity="1.000000" stroke="none" 
	d="
M308.297302,193.707825 
	C316.434021,190.375702 319.595490,184.363495 319.569702,176.221909 
	C319.544037,168.128036 315.274323,162.980591 308.104279,160.400162 
	C301.877869,158.159302 295.314362,156.873108 288.963257,154.954971 
	C284.372345,153.568420 279.689148,152.246002 275.390808,150.179886 
	C264.779144,145.079117 260.095245,136.133682 260.643188,124.604271 
	C261.196075,112.970177 267.673767,105.427132 278.425385,101.705872 
	C290.837921,97.409782 303.392365,97.762177 315.461792,102.825378 
	C320.014679,104.735344 323.856171,108.341255 327.526093,110.836876 
	C327.295624,112.333427 327.319885,112.523201 327.240051,112.644440 
	C322.024628,120.563370 322.194641,120.311737 314.695038,115.214302 
	C304.263123,108.123787 292.817352,107.889351 281.320648,112.042908 
	C275.664612,114.086334 272.965851,118.815475 272.796906,124.950974 
	C272.607758,131.822556 275.230133,137.336075 281.627136,139.776306 
	C288.564331,142.422562 295.955322,143.856812 303.082611,146.035049 
	C307.828766,147.485565 312.659943,148.900574 317.101532,151.055923 
	C327.207092,155.959808 332.074554,164.377914 332.079224,175.580338 
	C332.083984,186.996292 327.586670,195.880432 317.320435,201.457153 
	C302.730286,209.382721 277.455017,206.884567 264.886444,196.086716 
	C262.152679,193.738113 259.933044,190.791077 257.223969,187.844894 
	C259.873199,184.551422 262.205353,181.652145 265.082428,178.075424 
	C275.596588,194.723343 290.522247,197.900772 308.297302,193.707825 
z"/>
<path fill="#FFBE5C" opacity="1.000000" stroke="none" 
	d="
M772.841675,206.003815 
	C770.051636,205.945297 767.681702,206.141281 765.399414,205.781494 
	C753.963928,203.978729 746.982544,196.798843 746.089600,186.137238 
	C745.076416,174.038071 749.814392,165.976608 761.242065,162.231766 
	C768.613708,159.816116 776.413086,158.736038 783.956543,156.806198 
	C791.110657,154.975967 794.066162,151.981689 794.274109,147.026993 
	C794.544312,140.588425 790.838013,136.674896 784.054016,135.968933 
	C773.504578,134.871140 764.200256,137.116516 757.038940,145.537613 
	C756.534180,146.131226 755.808167,146.536713 754.717529,147.399551 
	C752.881409,144.987686 751.020386,142.891876 749.635132,140.518387 
	C749.199280,139.771576 749.688904,137.999634 750.349487,137.170593 
	C760.053101,124.992256 783.803711,120.802284 797.010681,128.993576 
	C803.121094,132.783401 806.192017,138.455475 806.197876,145.711746 
	C806.208435,158.705795 806.225952,171.699829 806.243347,184.693878 
	C806.255554,193.828018 807.196777,194.828354 816.530701,195.057343 
	C817.001038,197.626663 817.493469,200.316223 817.967285,202.904205 
	C808.164124,207.978149 800.422913,204.846573 795.151794,193.313431 
	C789.790222,201.216522 782.773132,205.904755 772.841675,206.003815 
M770.112854,196.824158 
	C788.648071,197.846512 798.317200,184.547104 794.465271,163.943909 
	C786.160278,165.856049 777.788879,167.554642 769.548584,169.746078 
	C761.546936,171.874039 758.253357,175.975494 758.156677,182.847427 
	C758.054993,190.076355 761.393921,194.194229 770.112854,196.824158 
z"/>
<path fill="#FFBF5D" opacity="1.000000" stroke="none" 
	d="
M913.803711,166.197449 
	C916.924011,174.284195 919.923462,182.002884 923.462646,191.110413 
	C925.618286,185.624802 927.322205,181.430603 928.920227,177.196442 
	C934.443359,162.561813 940.258179,148.024277 945.263794,133.213837 
	C947.197571,127.492241 949.865051,124.895439 955.829834,125.963669 
	C956.948730,126.164047 958.134277,125.992317 959.901733,125.992317 
	C959.446960,127.709709 959.219971,129.089005 958.723999,130.363617 
	C947.198303,159.983643 935.697571,189.613586 924.072693,219.194748 
	C917.452393,236.040970 904.664307,240.488068 887.691284,236.996780 
	C882.738464,235.977997 884.198242,233.043518 884.776733,229.854401 
	C885.388977,226.479248 886.542480,225.479126 890.135864,226.370911 
	C904.241272,229.871368 915.804565,221.161072 916.675293,206.577087 
	C916.748718,205.347443 916.048340,204.033859 915.567566,202.814423 
	C906.290466,179.285187 896.988159,155.765915 887.707214,132.238174 
	C886.993042,130.427917 886.399170,128.570175 885.491760,126.006592 
	C889.475891,126.006592 892.822266,125.604225 895.986755,126.187859 
	C897.422791,126.452721 899.017822,128.462265 899.654663,130.038406 
	C904.454712,141.918594 909.034363,153.887894 913.803711,166.197449 
z"/>
<path fill="#050505" opacity="1.000000" stroke="none" 
	d="
M398.548645,188.505371 
	C403.698608,182.169220 404.653229,174.928268 404.717682,167.527908 
	C404.836456,153.886749 404.751617,140.243820 404.751617,126.297150 
	C408.613708,126.297150 412.331573,126.297150 416.231659,126.297150 
	C416.231659,152.499985 416.231659,178.580536 416.231659,204.778961 
	C412.600708,204.778961 409.180908,204.778961 405.166443,204.778961 
	C405.166443,200.378983 405.166443,196.184357 405.166443,191.989731 
	C404.820984,191.882690 404.475494,191.775665 404.130035,191.668625 
	C403.100861,193.030563 402.076965,194.396545 401.041656,195.753815 
	C393.854919,205.175385 381.302246,208.558838 368.628326,204.493362 
	C358.949432,201.388596 353.365997,193.644348 353.139221,181.333588 
	C352.802704,163.066437 353.052124,144.788513 353.052124,126.254395 
	C356.842316,126.254395 360.423798,126.254395 364.441101,126.254395 
	C364.441101,135.948776 364.386566,145.576340 364.457001,155.202988 
	C364.522736,164.185287 364.353027,173.192032 364.970917,182.140793 
	C365.523376,190.141571 370.697601,194.676559 378.696381,195.285431 
	C386.121918,195.850662 392.976746,194.592987 398.548645,188.505371 
z"/>
<path fill="#FFBF5D" opacity="1.000000" stroke="none" 
	d="
M846.283936,155.691376 
	C846.185547,172.214615 846.185547,188.306808 846.185547,204.700439 
	C841.706909,204.700439 838.138550,204.700439 834.204224,204.700439 
	C834.204224,178.577103 834.204224,152.580322 834.204224,126.287491 
	C837.642334,126.287491 840.902222,126.287491 844.780884,126.287491 
	C844.780884,130.326324 844.780884,134.368622 844.780884,138.410934 
	C845.179688,138.548920 845.578552,138.686905 845.977356,138.824890 
	C846.721069,137.747177 847.524902,136.705643 848.199280,135.586151 
	C854.786133,124.650612 868.540283,124.683563 877.069641,127.367447 
	C877.920959,127.635315 878.854248,129.724030 878.673218,130.783905 
	C878.208130,133.507233 877.137817,136.127151 876.280945,138.879761 
	C872.771423,138.172668 869.599915,137.105530 866.388062,136.965698 
	C856.184265,136.521439 850.254639,141.017380 847.419250,150.896851 
	C847.007263,152.332321 846.724731,153.804916 846.283936,155.691376 
z"/>
<path fill="#3EB8FF" opacity="1.000000" stroke="none" 
	d="
M724.398682,203.650116 
	C720.160706,205.679581 715.975769,206.040344 713.026123,202.822388 
	C711.281799,200.919495 710.355591,197.486481 710.500977,194.820007 
	C710.703552,191.102753 713.385193,188.540268 717.332581,188.070343 
	C721.334229,187.593964 725.140381,188.213181 727.072693,192.283936 
	C729.047729,196.444733 728.440491,200.333267 724.398682,203.650116 
z"/>
<path fill="#040406" opacity="1.000000" stroke="none" 
	d="
M161.979645,79.057144 
	C163.384735,71.761925 160.456146,68.007935 154.323517,64.787437 
	C141.990952,58.311111 130.074951,51.009396 118.222984,43.667450 
	C114.063881,41.091011 111.028275,40.847031 106.620560,43.493858 
	C87.859390,54.759922 68.799797,65.528999 49.023048,76.956863 
	C49.023048,69.888573 48.916466,63.377140 49.146683,56.877644 
	C49.178444,55.981003 50.755116,54.929153 51.825394,54.310379 
	C71.083176,43.176662 90.346626,32.051697 109.712952,21.109079 
	C111.073204,20.340494 113.616356,20.342638 114.983315,21.106649 
	C136.269852,33.004013 157.487595,45.026630 178.589371,57.247974 
	C180.146271,58.149677 181.572601,60.785686 181.583191,62.623924 
	C181.764755,94.112450 181.674240,125.602455 181.782257,157.091644 
	C181.791641,159.827377 180.882019,161.201111 178.554321,162.500977 
	C166.095276,169.458527 153.794403,176.701035 141.285141,183.564865 
	C139.655838,184.458847 136.792007,184.453339 135.099915,183.630615 
	C129.908035,181.106186 125.007980,177.981567 119.229851,174.649323 
	C128.561340,169.208878 137.312103,164.107147 146.062698,159.005127 
	C147.641922,158.084381 149.121002,156.874496 150.815918,156.289017 
	C160.147598,153.065506 162.744461,146.865402 162.256516,137.013031 
	C161.309891,117.899734 161.979630,98.706375 161.979645,79.057144 
z"/>
<path fill="#040406" opacity="1.000000" stroke="none" 
	d="
M24.019737,117.001556 
	C24.118963,110.694183 22.320164,103.796326 24.852936,99.386032 
	C27.369719,95.003555 34.203190,93.055130 39.211224,90.155991 
	C62.475609,76.688255 85.784752,63.297619 109.011429,49.765331 
	C111.457191,48.340385 113.203712,48.270168 115.704132,49.768368 
	C127.943214,57.101761 140.387436,64.093605 152.596970,71.474464 
	C154.169067,72.424820 155.585922,74.882362 155.715195,76.736519 
	C156.116287,82.489204 155.861938,88.287582 155.861938,94.955528 
	C146.339233,89.507431 137.475342,84.393402 128.567825,79.356514 
	C123.374756,76.420013 118.118660,71.382095 112.878471,71.366096 
	C107.670166,71.350189 102.399651,76.357346 97.237793,79.304314 
	C80.511147,88.853752 63.867302,98.549492 47.077168,107.985313 
	C43.977558,109.727234 42.660137,111.517090 42.719715,115.253532 
	C42.974720,131.246445 42.931686,147.246948 42.745167,163.241760 
	C42.705292,166.661209 43.710869,168.526886 46.746391,170.249817 
	C65.069214,180.649551 83.251404,191.297119 101.476318,201.869217 
	C102.742493,202.603683 103.973831,203.398193 105.258919,204.187866 
	C104.823074,204.641479 104.650505,204.924957 104.398277,205.068314 
	C98.772064,208.266418 93.177864,213.847183 87.492058,213.943817 
	C82.070808,214.035934 76.538918,208.430283 71.079201,205.288574 
	C56.546490,196.925964 42.075737,188.453568 27.457493,180.243576 
	C24.714905,178.703262 23.932291,177.000671 23.954439,173.989365 
	C24.092922,155.160782 24.021591,136.330688 24.019737,117.001556 
z"/>
<path fill="#030204" opacity="1.000000" stroke="none" 
	d="
M144.983749,188.993469 
	C158.253342,181.379150 171.131897,173.805435 184.152039,166.483521 
	C186.958130,164.905518 188.065765,163.264648 188.039978,159.940308 
	C187.865509,137.452194 187.948898,114.962097 187.948898,91.650543 
	C193.925339,95.078087 199.508133,98.160042 204.922104,101.514488 
	C205.730667,102.015457 206.076599,103.795006 206.080093,104.984711 
	C206.146423,127.477119 206.175369,149.970093 206.017776,172.461609 
	C206.007919,173.865509 204.737534,175.838165 203.483826,176.569672 
	C182.278076,188.942612 161.002213,201.196350 139.653702,213.321198 
	C138.414871,214.024780 136.076294,214.016266 134.834335,213.310303 
	C106.987350,197.481369 79.206245,181.535995 51.495483,165.469818 
	C50.256413,164.751419 49.099766,162.696014 49.082584,161.249374 
	C48.906490,146.423004 48.945782,131.593597 49.028572,116.765594 
	C49.035084,115.599648 49.472240,113.865517 50.296806,113.366699 
	C55.928600,109.959785 61.717644,106.812805 68.049370,103.247917 
	C68.049370,118.581734 68.184074,133.198639 67.950897,147.809677 
	C67.895363,151.289490 69.091637,153.080444 71.985878,154.733139 
	C91.881416,166.094147 111.782623,177.452591 131.452103,189.196884 
	C136.275146,192.076645 140.256592,193.021408 144.983749,188.993469 
z"/>
<path fill="#FFFEFC" opacity="1.000000" stroke="none" 
	d="
M769.710449,196.712128 
	C761.393921,194.194229 758.054993,190.076355 758.156677,182.847427 
	C758.253357,175.975494 761.546936,171.874039 769.548584,169.746078 
	C777.788879,167.554642 786.160278,165.856049 794.465271,163.943909 
	C798.317200,184.547104 788.648071,197.846512 769.710449,196.712128 
z"/>
</svg>